<?xml version="1.0" encoding="UTF-8" standalone="no"?>
<svg
   xmlns:dc="http://purl.org/dc/elements/1.1/"
   xmlns:cc="http://creativecommons.org/ns#"
   xmlns:rdf="http://www.w3.org/1999/02/22-rdf-syntax-ns#"
   xmlns:svg="http://www.w3.org/2000/svg"
   xmlns="http://www.w3.org/2000/svg"
   xmlns:sodipodi="http://sodipodi.sourceforge.net/DTD/sodipodi-0.dtd"
   xmlns:inkscape="http://www.inkscape.org/namespaces/inkscape"
   id="Layer_1"
   data-name="Layer 1"
   viewBox="0 0 1375 310"
   version="1.1"
   sodipodi:docname="Logo-site-headers.svg"
   inkscape:version="0.92.1 r15371"
   width="36.380207cm"
   height="8.2020836cm">
  <metadata
     id="metadata4732">
    <rdf:RDF>
      <cc:Work
         rdf:about="">
        <dc:format>image/svg+xml</dc:format>
        <dc:type
           rdf:resource="http://purl.org/dc/dcmitype/StillImage" />
        <dc:title>TrackingExposed</dc:title>
      </cc:Work>
    </rdf:RDF>
  </metadata>
  <sodipodi:namedview
     pagecolor="#ffffff"
     bordercolor="#666666"
     borderopacity="1"
     objecttolerance="10"
     gridtolerance="10"
     guidetolerance="10"
     inkscape:pageopacity="0"
     inkscape:pageshadow="2"
     inkscape:window-width="1920"
     inkscape:window-height="1200"
     id="namedview4730"
     showgrid="false"
     inkscape:zoom="0.35569921"
     inkscape:cx="352.6339"
     inkscape:cy="227.11052"
     inkscape:window-x="0"
     inkscape:window-y="0"
     inkscape:window-maximized="1"
     inkscape:current-layer="g19161"
     units="cm" />
  <defs
     id="defs4667">
    <style
       id="style4665">.cls-1{fill:#3b5998;}.cls-2{fill:#1b1b1b;}</style>
  </defs>
  <title
     id="title4669">TrackingExposed</title>
  <g
     inkscape:groupmode="layer"
     id="layer3"
     inkscape:label="youtube"
     style="display:none"
     sodipodi:insensitive="true">
    <path
       inkscape:connector-curvature="0"
       class="cls-1"
       d="m 405.04086,139.48425 h -18.74 v -35.7 l -34.72,-62.3 h 21.28 l 22.82,40.88 22.82,-40.88 h 21.28 l -34.72,62.3 z"
       id="path13131"
       style="fill:#ff0000;fill-opacity:1" />
    <path
       inkscape:connector-curvature="0"
       class="cls-1"
       d="m 429.80086,98.46425 c 0,-20 11.48,-33.18 32.2,-33.18 20.72,0 32.2,13.16 32.2,33.18 v 9.24 c 0,20 -11.48,33.18 -32.2,33.18 -20.72,0 -32.2,-13.16 -32.2,-33.18 z m 45.92,-2.38 c 0,-8.54 -4.76,-14.14 -13.72,-14.14 -8.96,0 -13.7,5.6 -13.7,14.14 v 14 c 0,8.54 4.76,14.14 13.72,14.14 8.96,0 13.72,-5.6 13.72,-14.14 z"
       id="path13133"
       style="fill:#ff0000;fill-opacity:1" />
    <path
       inkscape:connector-curvature="0"
       class="cls-1"
       d="m 547.52086,108.82425 v -41.58 h 18.48 v 72.24 h -18.48 v -7.84 c -3.22,4.9 -8.54,9.24 -17.5,9.24 -13.44,0 -27.58,-9.52 -27.58,-31.36 v -42.28 h 18.48 v 41.58 c 0,9.66 6.58,14 13.3,14 6.72,0 13.3,-4.34 13.3,-14 z"
       id="path13135"
       style="fill:#ff0000;fill-opacity:1" />
    <path
       inkscape:connector-curvature="0"
       class="cls-1"
       d="m 618.30086,122.82425 v 16.66 h -17.75 c -12.88,0 -18.48,-6.72 -18.48,-18.48 v -37.08 h -10.22 v -16.68 h 10.22 v -16.38 h 18.48 v 16.38 h 17.75 v 16.68 h -17.75 v 33.18 c 0,3.36 0.84,5.74 5.32,5.74 z"
       id="path13137"
       style="fill:#ff0000;fill-opacity:1" />
    <path
       inkscape:connector-curvature="0"
       class="cls-1"
       d="m 669.63086,108.82425 v -41.58 h 18.48 v 72.24 h -18.48 v -7.84 c -3.22,4.9 -8.54,9.24 -17.5,9.24 -13.44,0 -27.58,-9.52 -27.58,-31.36 v -42.28 h 18.48 v 41.58 c 0,9.66 6.58,14 13.3,14 6.72,0 13.3,-4.34 13.3,-14 z"
       id="path13139"
       style="fill:#ff0000;fill-opacity:1" />
    <path
       inkscape:connector-curvature="0"
       class="cls-1"
       d="m 718.01086,139.48425 h -18.48 v -98 h 18.48 v 32.06 c 3.36,-4.9 10.36,-8.26 16.94,-8.26 14.7,0 29,10.08 29,31.36 v 12.88 c 0,21.28 -14.28,31.36 -29,31.36 -6.58,0 -13.58,-3.36 -16.94,-8.26 z m 27.44,-42.14 c 0,-9.66 -6.72,-14 -13.72,-14 -7,0 -13.72,4.34 -13.72,14 v 11.48 c 0,9.66 6.72,14 13.72,14 7,0 13.72,-4.34 13.72,-14 z"
       id="path13141"
       style="fill:#ff0000;fill-opacity:1" />
    <path
       inkscape:connector-curvature="0"
       class="cls-1"
       d="m 789.59086,109.66425 v 0.42 c 0,8.54 4.76,14.14 13.72,14.14 6.58,0 10.92,-3.08 12.74,-8 h 18.76 c -2.94,15.14 -13.58,24.7 -31.51,24.7 -20.72,0 -32.2,-13.16 -32.2,-33.18 v -9.24 c 0,-20 11.48,-33.18 32.2,-33.18 20.72,0 32.2,13.16 32.2,33.18 v 11.2 z m 0,-15.4 v 0.14 h 27.3 v -0.14 c -0.59,-7.7 -5.18,-12.34 -13.59,-12.34 -8.41,0 -13,4.92 -13.71,12.34 z"
       id="path13143"
       style="fill:#ff0000;fill-opacity:1" />
    <path
       inkscape:connector-curvature="0"
       class="cls-2"
       d="m 403.44086,180.43425 v 79.38 h -19.32 v -79.38 h -27.3 v -18.62 h 73.92 v 18.62 z"
       id="path13145"
       style="fill:#1b1b1b" />
    <path
       inkscape:connector-curvature="0"
       class="cls-2"
       d="m 440.20086,259.81425 h -18.48 v -72.24 h 18.48 v 7.84 c 2.1,-4.9 8.26,-9.1 16.8,-9.1 h 5.6 v 18.06 h -8.68 c -7,0 -13.72,4.34 -13.72,14 z"
       id="path13147"
       style="fill:#1b1b1b" />
    <path
       inkscape:connector-curvature="0"
       class="cls-2"
       d="m 510.89086,212.77425 c -1.26,-6.58 -5.74,-10.5 -13.44,-10.5 -6.58,0 -10.92,3.08 -12.74,8 h -18.62 c 2.94,-15.12 13.44,-24.64 31.36,-24.64 20.72,0 32.2,13.16 32.2,33.18 v 41 h -18.48 v -8.26 c -3.36,5.46 -9,9.66 -20.16,9.66 -16.8,0 -26.32,-8 -26.32,-21.42 0,-10.64 3.64,-16.66 13.72,-21.56 7,-3.22 21.56,-4.62 32.48,-5.32 z m -27.72,24.92 c 0,3.5 2.66,7.28 10.92,7.28 9.52,0 17.08,-5.32 17.08,-14.42 v -2.38 c -10.64,0.7 -20.58,1.54 -24.08,3.36 -3.22,1.54 -3.92,2.94 -3.92,6.16 z"
       id="path13149"
       style="fill:#1b1b1b" />
    <path
       inkscape:connector-curvature="0"
       class="cls-2"
       d="m 600.62086,233.49425 c -2.1,17.22 -12.88,27.72 -31.92,27.72 -20.72,0 -32.2,-13.16 -32.2,-33.18 v -9.24 c 0,-20 11.48,-33.18 32.2,-33.18 19,0 29.82,10.5 31.92,27.72 h -18.48 c -1.12,-6.72 -5.6,-11.06 -13.44,-11.06 -9,0 -13.72,5.6 -13.72,14.14 v 14 c 0,8.54 4.76,14.14 13.72,14.14 7.84,0 12.46,-4.2 13.44,-11.06 z"
       id="path13151"
       style="fill:#1b1b1b" />
    <path
       inkscape:connector-curvature="0"
       class="cls-2"
       d="m 625.63086,212.77425 23.1,-25.2 h 22.4 l -26.18,28.42 30,43.82 h -21.7 l -20.72,-30.24 -6.86,7.56 v 22.68 h -18.52 v -98 h 18.48 z"
       id="path13153"
       style="fill:#1b1b1b" />
    <path
       inkscape:connector-curvature="0"
       class="cls-2"
       d="m 696.82086,178.19425 h -18.52 v -16.38 h 18.48 z m 0,81.62 h -18.52 v -72.24 h 18.48 z"
       id="path13155"
       style="fill:#1b1b1b" />
    <path
       inkscape:connector-curvature="0"
       class="cls-2"
       d="m 771.09086,259.81425 h -18.48 v -42.14 c 0,-9.66 -6.72,-14 -13.72,-14 -7,0 -13.72,4.34 -13.72,14 v 42.14 h -18.48 v -72.24 h 18.48 v 6.35 c 3.36,-4.9 10.36,-8.26 16.94,-8.26 14.7,0 29,10.08 29,31.36 z"
       id="path13157"
       style="fill:#1b1b1b" />
    <path
       inkscape:connector-curvature="0"
       class="cls-2"
       d="m 796.53086,260.23425 c 1.54,6.3 5.88,10.08 13.3,10.08 9,0 13.72,-5.6 13.72,-14.14 v -8.4 c -3.36,4.9 -10.36,8.26 -16.94,8.26 -14.7,0 -29,-10.08 -29,-31.36 v -7.7 c 0,-21.28 14.28,-31.36 29,-31.36 6.58,0 13.58,3.36 16.94,8.26 v -6.3 h 18.48 v 66.22 c 0,20 -11.48,33.18 -32.2,33.18 -18.62,0 -29.54,-10.08 -31.78,-26.74 z m -0.42,-36.26 c 0,9.66 6.72,14 13.72,14 7,0 13.72,-4.34 13.72,-14 v -6.3 c 0,-9.66 -6.72,-14 -13.72,-14 -7,0 -13.72,4.34 -13.72,14 z"
       id="path13159"
       style="fill:#1b1b1b" />
    <path
       inkscape:connector-curvature="0"
       class="cls-2"
       d="m 899.30086,201.01425 h 40.88004 v 18.62 h -40.88004 v 21.56 h 40.88004 v 18.62 h -59.64004 v -98 h 59.64004 v 18.62 h -40.88004 z"
       id="path13161"
       style="fill:#1b1b1b" />
    <path
       inkscape:connector-curvature="0"
       class="cls-2"
       d="m 991.9209,187.57425 h 21 l -23.38,35.14 24.5,37.1 h -21.14 l -14.28,-22.12 -14.32,22.12 h -21.1 l 24.5,-37.1 -23.4,-35.14 h 21 l 13.3,20.44 z"
       id="path13163"
       style="fill:#1b1b1b" />
    <path
       inkscape:connector-curvature="0"
       class="cls-2"
       d="m 1036.3009,285.57425 h -18.5 v -98 h 18.5 v 6.35 c 3.36,-4.9 10.36,-8.26 16.94,-8.26 14.7,0 29,10.08 29,31.36 v 12.88 c 0,21.28 -14.28,31.36 -29,31.36 -6.58,0 -13.58,-3.36 -16.94,-8.26 z m 27.44,-67.9 c 0,-9.66 -6.72,-14 -13.72,-14 -7,0 -13.72,4.34 -13.72,14 v 11.48 c 0,9.66 6.72,14 13.72,14 7,0 13.72,-4.34 13.72,-14 z"
       id="path13165"
       style="fill:#1b1b1b" />
    <path
       inkscape:connector-curvature="0"
       class="cls-2"
       d="m 1087.9809,218.79425 c 0,-20 11.48,-33.18 32.2,-33.18 20.72,0 32.2,13.16 32.2,33.18 v 9.24 c 0,20 -11.48,33.18 -32.2,33.18 -20.72,0 -32.2,-13.16 -32.2,-33.18 z m 45.92,-2.38 c 0,-8.54 -4.77,-14.14 -13.72,-14.14 -8.95,0 -13.72,5.6 -13.72,14.14 v 14 c 0,8.54 4.76,14.14 13.72,14.14 8.96,0 13.72,-5.6 13.72,-14.14 z"
       id="path13167"
       style="fill:#1b1b1b" />
    <path
       inkscape:connector-curvature="0"
       class="cls-2"
       d="m 1156.4109,236.43425 h 18.48 c 0.7,5.6 7.56,8.12 13.44,8.12 3.64,0 9.1,-0.84 9.1,-5.6 0,-2.8 -2.1,-4.62 -6.44,-5.6 l -15.12,-3.36 c -7.84,-1.82 -17.78,-8 -17.78,-22.12 0,-14.12 12.74,-22.26 27.58,-22.26 14.56,0 26.88,7 28,23.38 h -18.9 c -1,-4.62 -5,-6.72 -9.66,-6.72 -5.46,0 -8.4,2.1 -8.54,5.46 -0.14,3.36 2.38,4.62 5.6,5.32 l 16.24,3.64 c 7.84,1.82 17.5,7.28 17.5,22.26 0,16.24 -13.16,22.26 -28.14,22.26 -14.98,0 -30.66,-7.56 -31.36,-24.78 z"
       id="path13169"
       style="fill:#1b1b1b" />
    <path
       inkscape:connector-curvature="0"
       class="cls-2"
       d="m 1238.6709,229.99425 v 0.42 c 0,8.54 4.76,14.14 13.72,14.14 6.58,0 10.92,-3.08 12.74,-8 h 18.76 c -2.94,15.12 -13.58,24.64 -31.5,24.64 -20.72,0 -32.2,-13.16 -32.2,-33.18 v -9.24 c 0,-20 11.48,-33.18 32.2,-33.18 20.72,0 32.2,13.16 32.2,33.18 v 11.2 z m 0,-15.4 v 0.14 h 27.3 v -0.14 c -0.56,-7.7 -5.18,-12.32 -13.58,-12.32 -8.4,0 -13.02,4.9 -13.72,12.32 z"
       id="path13171"
       style="fill:#1b1b1b" />
    <path
       inkscape:connector-curvature="0"
       class="cls-2"
       d="m 1335.9709,252.92425 c -3.36,4.9 -10.36,8.26 -16.94,8.26 -14.7,0 -29,-10.08 -29,-31.36 v -12.85 c 0,-21.28 14.28,-31.36 29,-31.36 6.58,0 13.58,3.36 16.94,8.26 v -32.06 h 18.48 v 98 h -18.48 z m -27.44,-23.8 c 0,9.66 6.72,14 13.72,14 7,0 13.72,-4.34 13.72,-14 v -11.45 c 0,-9.66 -6.72,-14 -13.72,-14 -7,0 -13.72,4.34 -13.72,14 z"
       id="path13173"
       style="fill:#1b1b1b" />
    <path
       inkscape:connector-curvature="0"
       class="cls-2"
       d="M 304.05086,151.92425 A 150.38,150.38 0 0 0 164.23086,1.924252 V 23.08425 c 66.36,5.39 118.71,61.11 118.71,128.84 0,67.73 -52.35,123.45 -118.71,128.84 v 21.16 a 150.38,150.38 0 0 0 139.82,-150 z"
       id="path13175"
       style="fill:#1b1b1b" />
    <path
       inkscape:connector-curvature="0"
       class="cls-2"
       d="m 24.41086,151.92425 c 0,-67.73 52.35,-123.45 118.71,-128.84 V 1.924252 a 150.37,150.37 0 0 0 0,299.999998 v -21.16 c -66.36,-5.39 -118.71,-61.11 -118.71,-128.84 z"
       id="path13177"
       style="fill:#1b1b1b" />
    <path
       inkscape:connector-curvature="0"
       class="cls-2"
       d="m 102.23086,62.82425 a 102.9,102.9 0 0 0 -42.47,131.1 l 18.42,-10.64 a 81.76,81.76 0 0 1 140.43,-81.08 l 18.43,-10.63 a 102.9,102.9 0 0 0 -134.81,-28.75 z"
       id="path13179"
       style="fill:#1b1b1b" />
    <path
       inkscape:connector-curvature="0"
       class="cls-2"
       d="m 194.57086,222.75425 a 81.91,81.91 0 0 1 -105.84,-21.15 l -18.43,10.63 a 102.9,102.9 0 0 0 177.29,-102.31 l -18.42,10.6 a 81.9,81.9 0 0 1 -34.6,102.23 z"
       id="path13181"
       style="fill:#1b1b1b" />
    <path
       inkscape:connector-curvature="0"
       class="cls-2"
       d="m 181.37086,103.92425 a 55.41,55.41 0 0 0 -69.52,11.65 l 18.84,10.88 a 34.29,34.29 0 0 1 56.52,32.63 l 18.84,10.87 a 55.41,55.41 0 0 0 -24.68,-66.03 z"
       id="path13183"
       style="fill:#1b1b1b" />
    <path
       inkscape:connector-curvature="0"
       class="cls-2"
       d="m 136.53086,181.62425 a 34.35,34.35 0 0 1 -16.39,-36.88 l -18.84,-10.82 a 55.4,55.4 0 0 0 94.2,54.38 l -18.85,-10.88 a 34.33,34.33 0 0 1 -40.12,4.2 z"
       id="path13185"
       style="fill:#1b1b1b" />
  </g>
  <g
     inkscape:groupmode="layer"
     id="layer4"
     inkscape:label="pornhub"
     style="display:none"
     sodipodi:insensitive="true">
    <path
       inkscape:connector-curvature="0"
       class="cls-1"
       d="m 381.10086,139.48425 h -18.8 v -98 h 40 c 23.1,0 33.88,16 33.88,33.88 0,17.88 -10.78,34 -33.88,34 h -21.2 z m 21.28,-48.72 c 10.36,0 15.12,-7.84 15.12,-15.4 0,-7.56 -4.76,-15.26 -15.12,-15.26 h -21.28 v 30.66 z"
       id="path14995"
       style="fill:#fa9900;fill-opacity:1" />
    <path
       inkscape:connector-curvature="0"
       class="cls-1"
       d="m 440.04086,98.46425 c 0,-20 11.47,-33.18 32.19,-33.18 20.72,0 32.2,13.16 32.2,33.18 v 9.24 c 0,20 -11.47,33.18 -32.2,33.18 -20.73,0 -32.19,-13.16 -32.19,-33.18 z m 45.92,-2.38 c 0,-8.54 -4.77,-14.14 -13.73,-14.14 -8.96,0 -13.72,5.6 -13.72,14.14 v 14 c 0,8.54 4.76,14.14 13.72,14.14 8.96,0 13.73,-5.6 13.73,-14.14 z"
       id="path14997"
       style="fill:#fa9900;fill-opacity:1" />
    <path
       inkscape:connector-curvature="0"
       class="cls-1"
       d="m 532.03086,139.48425 h -18.48 v -72.24 h 18.48 v 7.84 c 2.1,-4.9 8.26,-9.1 16.8,-9.1 h 5.6 v 18.06 h -8.68 c -7,0 -13.72,4.34 -13.72,14 z"
       id="path14999"
       style="fill:#fa9900;fill-opacity:1" />
    <path
       inkscape:connector-curvature="0"
       class="cls-1"
       d="m 624.66086,139.48425 h -18.48 v -42.14 c 0,-9.66 -6.72,-14 -13.72,-14 -7,0 -13.72,4.34 -13.72,14 v 42.14 h -18.44 v -72.24 h 18.48 v 6.3 c 3.36,-4.9 10.36,-8.26 16.94,-8.26 14.7,0 29,10.08 29,31.36 z"
       id="path15001"
       style="fill:#fa9900;fill-opacity:1" />
    <path
       inkscape:connector-curvature="0"
       class="cls-1"
       d="m 699.86086,139.48425 h -18.48 v -42.14 c 0,-9.66 -6.72,-14 -13.72,-14 -7,0 -13.72,4.34 -13.72,14 v 42.14 h -18.48 v -98 h 18.48 v 32.06 c 3.36,-4.9 10.36,-8.26 16.94,-8.26 14.7,0 29,10.08 29,31.36 z"
       id="path15003"
       style="fill:#fa9900;fill-opacity:1" />
    <path
       inkscape:connector-curvature="0"
       class="cls-1"
       d="m 754.55086,108.82425 v -41.58 h 18.48 v 72.24 h -18.48 v -7.84 c -3.22,4.9 -8.54,9.24 -17.5,9.24 -13.44,0 -27.58,-9.52 -27.58,-31.36 v -42.28 h 18.48 v 41.58 c 0,9.66 6.58,14 13.3,14 6.72,0 13.3,-4.34 13.3,-14 z"
       id="path15005"
       style="fill:#fa9900;fill-opacity:1" />
    <path
       inkscape:connector-curvature="0"
       class="cls-1"
       d="m 802.93086,139.48425 h -18.47 v -98 h 18.47 v 32.06 c 3.37,-4.9 10.37,-8.26 16.94,-8.26 14.7,0 29,10.08 29,31.36 v 12.88 c 0,21.28 -14.28,31.36 -29,31.36 -6.57,0 -13.57,-3.36 -16.94,-8.26 z m 27.44,-42.14 c 0,-9.66 -6.72,-14 -13.72,-14 -7,0 -13.72,4.34 -13.72,14 v 11.48 c 0,9.66 6.72,14 13.72,14 7,0 13.72,-4.34 13.72,-14 z"
       id="path15007"
       style="fill:#fa9900;fill-opacity:1" />
    <path
       inkscape:connector-curvature="0"
       class="cls-2"
       d="m 403.44086,180.43425 v 79.38 h -19.32 v -79.38 h -27.3 v -18.62 h 73.92 v 18.62 z"
       id="path15009"
       style="fill:#1b1b1b" />
    <path
       inkscape:connector-curvature="0"
       class="cls-2"
       d="m 440.20086,259.81425 h -18.48 v -72.24 h 18.48 v 7.84 c 2.1,-4.9 8.26,-9.1 16.8,-9.1 h 5.6 v 18.06 h -8.68 c -7,0 -13.72,4.34 -13.72,14 z"
       id="path15011"
       style="fill:#1b1b1b" />
    <path
       inkscape:connector-curvature="0"
       class="cls-2"
       d="m 510.89086,212.77425 c -1.26,-6.58 -5.74,-10.5 -13.44,-10.5 -6.58,0 -10.92,3.08 -12.74,8 h -18.62 c 2.94,-15.12 13.44,-24.64 31.36,-24.64 20.72,0 32.2,13.16 32.2,33.18 v 41 h -18.48 v -8.26 c -3.36,5.46 -9,9.66 -20.16,9.66 -16.8,0 -26.32,-8 -26.32,-21.42 0,-10.64 3.64,-16.66 13.72,-21.56 7,-3.22 21.56,-4.62 32.48,-5.32 z m -27.72,24.92 c 0,3.5 2.66,7.28 10.92,7.28 9.52,0 17.08,-5.32 17.08,-14.42 v -2.38 c -10.64,0.7 -20.58,1.54 -24.08,3.36 -3.22,1.54 -3.92,2.94 -3.92,6.16 z"
       id="path15013"
       style="fill:#1b1b1b" />
    <path
       inkscape:connector-curvature="0"
       class="cls-2"
       d="m 600.62086,233.49425 c -2.1,17.22 -12.88,27.72 -31.92,27.72 -20.72,0 -32.2,-13.16 -32.2,-33.18 v -9.24 c 0,-20 11.48,-33.18 32.2,-33.18 19,0 29.82,10.5 31.92,27.72 h -18.48 c -1.12,-6.72 -5.6,-11.06 -13.44,-11.06 -9,0 -13.72,5.6 -13.72,14.14 v 14 c 0,8.54 4.76,14.14 13.72,14.14 7.84,0 12.46,-4.2 13.44,-11.06 z"
       id="path15015"
       style="fill:#1b1b1b" />
    <path
       inkscape:connector-curvature="0"
       class="cls-2"
       d="m 625.63086,212.77425 23.1,-25.2 h 22.4 l -26.18,28.42 30,43.82 h -21.7 l -20.72,-30.24 -6.86,7.56 v 22.68 h -18.52 v -98 h 18.48 z"
       id="path15017"
       style="fill:#1b1b1b" />
    <path
       inkscape:connector-curvature="0"
       class="cls-2"
       d="m 696.82086,178.19425 h -18.52 v -16.38 h 18.48 z m 0,81.62 h -18.52 v -72.24 h 18.48 z"
       id="path15019"
       style="fill:#1b1b1b" />
    <path
       inkscape:connector-curvature="0"
       class="cls-2"
       d="m 771.09086,259.81425 h -18.48 v -42.14 c 0,-9.66 -6.72,-14 -13.72,-14 -7,0 -13.72,4.34 -13.72,14 v 42.14 h -18.48 v -72.24 h 18.48 v 6.35 c 3.36,-4.9 10.36,-8.26 16.94,-8.26 14.7,0 29,10.08 29,31.36 z"
       id="path15021"
       style="fill:#1b1b1b" />
    <path
       inkscape:connector-curvature="0"
       class="cls-2"
       d="m 796.53086,260.23425 c 1.54,6.3 5.88,10.08 13.3,10.08 9,0 13.72,-5.6 13.72,-14.14 v -8.4 c -3.36,4.9 -10.36,8.26 -16.94,8.26 -14.7,0 -29,-10.08 -29,-31.36 v -7.7 c 0,-21.28 14.28,-31.36 29,-31.36 6.58,0 13.58,3.36 16.94,8.26 v -6.3 h 18.48 v 66.22 c 0,20 -11.48,33.18 -32.2,33.18 -18.62,0 -29.54,-10.08 -31.78,-26.74 z m -0.42,-36.26 c 0,9.66 6.72,14 13.72,14 7,0 13.72,-4.34 13.72,-14 v -6.3 c 0,-9.66 -6.72,-14 -13.72,-14 -7,0 -13.72,4.34 -13.72,14 z"
       id="path15023"
       style="fill:#1b1b1b" />
    <path
       inkscape:connector-curvature="0"
       class="cls-2"
       d="m 899.30086,201.01425 h 40.88004 v 18.62 h -40.88004 v 21.56 h 40.88004 v 18.62 h -59.64004 v -98 h 59.64004 v 18.62 h -40.88004 z"
       id="path15025"
       style="fill:#1b1b1b" />
    <path
       inkscape:connector-curvature="0"
       class="cls-2"
       d="m 991.9209,187.57425 h 21 l -23.38,35.14 24.5,37.1 h -21.14 l -14.28,-22.12 -14.32,22.12 h -21.1 l 24.5,-37.1 -23.4,-35.14 h 21 l 13.3,20.44 z"
       id="path15027"
       style="fill:#1b1b1b" />
    <path
       inkscape:connector-curvature="0"
       class="cls-2"
       d="m 1036.3009,285.57425 h -18.5 v -98 h 18.5 v 6.35 c 3.36,-4.9 10.36,-8.26 16.94,-8.26 14.7,0 29,10.08 29,31.36 v 12.88 c 0,21.28 -14.28,31.36 -29,31.36 -6.58,0 -13.58,-3.36 -16.94,-8.26 z m 27.44,-67.9 c 0,-9.66 -6.72,-14 -13.72,-14 -7,0 -13.72,4.34 -13.72,14 v 11.48 c 0,9.66 6.72,14 13.72,14 7,0 13.72,-4.34 13.72,-14 z"
       id="path15029"
       style="fill:#1b1b1b" />
    <path
       inkscape:connector-curvature="0"
       class="cls-2"
       d="m 1087.9809,218.79425 c 0,-20 11.48,-33.18 32.2,-33.18 20.72,0 32.2,13.16 32.2,33.18 v 9.24 c 0,20 -11.48,33.18 -32.2,33.18 -20.72,0 -32.2,-13.16 -32.2,-33.18 z m 45.92,-2.38 c 0,-8.54 -4.77,-14.14 -13.72,-14.14 -8.95,0 -13.72,5.6 -13.72,14.14 v 14 c 0,8.54 4.76,14.14 13.72,14.14 8.96,0 13.72,-5.6 13.72,-14.14 z"
       id="path15031"
       style="fill:#1b1b1b" />
    <path
       inkscape:connector-curvature="0"
       class="cls-2"
       d="m 1156.4109,236.43425 h 18.48 c 0.7,5.6 7.56,8.12 13.44,8.12 3.64,0 9.1,-0.84 9.1,-5.6 0,-2.8 -2.1,-4.62 -6.44,-5.6 l -15.12,-3.36 c -7.84,-1.82 -17.78,-8 -17.78,-22.12 0,-14.12 12.74,-22.26 27.58,-22.26 14.56,0 26.88,7 28,23.38 h -18.9 c -1,-4.62 -5,-6.72 -9.66,-6.72 -5.46,0 -8.4,2.1 -8.54,5.46 -0.14,3.36 2.38,4.62 5.6,5.32 l 16.24,3.64 c 7.84,1.82 17.5,7.28 17.5,22.26 0,16.24 -13.16,22.26 -28.14,22.26 -14.98,0 -30.66,-7.56 -31.36,-24.78 z"
       id="path15033"
       style="fill:#1b1b1b" />
    <path
       inkscape:connector-curvature="0"
       class="cls-2"
       d="m 1238.6709,229.99425 v 0.42 c 0,8.54 4.76,14.14 13.72,14.14 6.58,0 10.92,-3.08 12.74,-8 h 18.76 c -2.94,15.12 -13.58,24.64 -31.5,24.64 -20.72,0 -32.2,-13.16 -32.2,-33.18 v -9.24 c 0,-20 11.48,-33.18 32.2,-33.18 20.72,0 32.2,13.16 32.2,33.18 v 11.2 z m 0,-15.4 v 0.14 h 27.3 v -0.14 c -0.56,-7.7 -5.18,-12.32 -13.58,-12.32 -8.4,0 -13.02,4.9 -13.72,12.32 z"
       id="path15035"
       style="fill:#1b1b1b" />
    <path
       inkscape:connector-curvature="0"
       class="cls-2"
       d="m 1335.9709,252.92425 c -3.36,4.9 -10.36,8.26 -16.94,8.26 -14.7,0 -29,-10.08 -29,-31.36 v -12.85 c 0,-21.28 14.28,-31.36 29,-31.36 6.58,0 13.58,3.36 16.94,8.26 v -32.06 h 18.48 v 98 h -18.48 z m -27.44,-23.8 c 0,9.66 6.72,14 13.72,14 7,0 13.72,-4.34 13.72,-14 v -11.45 c 0,-9.66 -6.72,-14 -13.72,-14 -7,0 -13.72,4.34 -13.72,14 z"
       id="path15037"
       style="fill:#1b1b1b" />
    <path
       inkscape:connector-curvature="0"
       class="cls-2"
       d="M 304.05086,151.92425 A 150.38,150.38 0 0 0 164.23086,1.924252 V 23.08425 c 66.36,5.39 118.71,61.11 118.71,128.84 0,67.73 -52.35,123.45 -118.71,128.84 v 21.16 a 150.38,150.38 0 0 0 139.82,-150 z"
       id="path15039"
       style="fill:#1b1b1b" />
    <path
       inkscape:connector-curvature="0"
       class="cls-2"
       d="m 24.41086,151.92425 c 0,-67.73 52.35,-123.45 118.71,-128.84 V 1.924252 a 150.37,150.37 0 0 0 0,299.999998 v -21.16 c -66.36,-5.39 -118.71,-61.11 -118.71,-128.84 z"
       id="path15041"
       style="fill:#1b1b1b" />
    <path
       inkscape:connector-curvature="0"
       class="cls-2"
       d="m 102.23086,62.82425 a 102.9,102.9 0 0 0 -42.47,131.1 l 18.42,-10.64 a 81.76,81.76 0 0 1 140.43,-81.08 l 18.43,-10.63 a 102.9,102.9 0 0 0 -134.81,-28.75 z"
       id="path15043"
       style="fill:#1b1b1b" />
    <path
       inkscape:connector-curvature="0"
       class="cls-2"
       d="m 194.57086,222.75425 a 81.91,81.91 0 0 1 -105.84,-21.15 l -18.43,10.63 a 102.9,102.9 0 0 0 177.29,-102.31 l -18.42,10.6 a 81.9,81.9 0 0 1 -34.6,102.23 z"
       id="path15045"
       style="fill:#1b1b1b" />
    <path
       inkscape:connector-curvature="0"
       class="cls-2"
       d="m 181.37086,103.92425 a 55.41,55.41 0 0 0 -69.52,11.65 l 18.84,10.88 a 34.29,34.29 0 0 1 56.52,32.63 l 18.84,10.87 a 55.41,55.41 0 0 0 -24.68,-66.03 z"
       id="path15047"
       style="fill:#1b1b1b" />
    <path
       inkscape:connector-curvature="0"
       class="cls-2"
       d="m 136.53086,181.62425 a 34.35,34.35 0 0 1 -16.39,-36.88 l -18.84,-10.82 a 55.4,55.4 0 0 0 94.2,54.38 l -18.85,-10.88 a 34.33,34.33 0 0 1 -40.12,4.2 z"
       id="path15049"
       style="fill:#1b1b1b" />
  </g>
  <g
     inkscape:groupmode="layer"
     id="layer1"
     inkscape:label="facebook"
     style="display:none"
     sodipodi:insensitive="true" />
  <g
     style="display:inline"
     inkscape:label="default"
     id="g19161"
     inkscape:groupmode="layer">
    <path
       inkscape:connector-curvature="0"
       class="cls-1"
       d="m 399.72263,59.932252 v 79.379998 h -19.32 V 59.932252 h -27.3 V 41.312256 h 73.92 v 18.619996 z"
       id="path20990"
       style="fill:#ffffff" />
    <path
       inkscape:connector-curvature="0"
       class="cls-1"
       d="m 436.48263,139.31225 h -18.48 V 67.072252 h 18.48 v 7.84 c 2.1,-4.9 8.26,-9.1 16.8,-9.1 h 5.6 v 18.06 h -8.68 c -7,0 -13.72,4.34 -13.72,14 z"
       id="path20992"
       style="fill:#ffffff" />
    <path
       inkscape:connector-curvature="0"
       class="cls-1"
       d="m 507.16263,92.272252 c -1.26,-6.58 -5.74,-10.5 -13.44,-10.5 -6.58,0 -10.92,3.08 -12.74,8 h -18.62 c 2.94,-15.12 13.44,-24.64 31.36,-24.64 20.72,0 32.2,13.16 32.2,33.18 v 40.999998 h -18.48 v -8.26 c -3.36,5.46 -9,9.66 -20.16,9.66 -16.8,0 -26.32,-8 -26.32,-21.42 0,-10.64 3.64,-16.66 13.72,-21.559998 7,-3.22 21.56,-4.62 32.48,-5.32 z m -27.72,24.919998 c 0,3.5 2.66,7.28 10.92,7.28 9.52,0 17.08,-5.32 17.08,-14.42 v -2.38 c -10.64,0.7 -20.58,1.54 -24.08,3.36 -3.22,1.54 -3.92,2.94 -3.92,6.16 z"
       id="path20994"
       style="fill:#ffffff" />
    <path
       inkscape:connector-curvature="0"
       class="cls-1"
       d="m 596.89263,112.99225 c -2.1,17.22 -12.88,27.72 -31.92,27.72 -20.72,0 -32.2,-13.16 -32.2,-33.18 v -9.239998 c 0,-20 11.48,-33.18 32.2,-33.18 19,0 29.82,10.5 31.92,27.72 h -18.48 c -1.11,-6.72 -5.6,-11.08 -13.44,-11.08 -9,0 -13.72,5.6 -13.72,14.14 v 13.999998 c 0,8.54 4.76,14.14 13.72,14.14 7.84,0 12.46,-4.2 13.44,-11.06 z"
       id="path20996"
       style="fill:#ffffff" />
    <path
       inkscape:connector-curvature="0"
       class="cls-1"
       d="m 621.90263,92.272252 23.1,-25.2 h 22.4 l -26.18,28.42 30,43.819998 h -21.7 l -20.72,-30.24 -6.86,7.56 v 22.68 h -18.52 V 41.312256 h 18.48 z"
       id="path20998"
       style="fill:#ffffff" />
    <path
       inkscape:connector-curvature="0"
       class="cls-1"
       d="m 693.09263,57.692252 h -18.48 V 41.312256 h 18.48 z m 0,81.619998 h -18.48 V 67.072252 h 18.48 z"
       id="path21000"
       style="fill:#ffffff" />
    <path
       inkscape:connector-curvature="0"
       class="cls-1"
       d="m 767.36263,139.31225 h -18.48 V 97.172252 c 0,-9.66 -6.72,-14 -13.72,-14 -7,0 -13.72,4.34 -13.72,14 v 42.139998 h -18.48 V 67.072252 h 18.48 v 6.3 c 3.36,-4.9 10.36,-8.26 16.94,-8.26 14.7,0 29,10.08 29,31.36 z"
       id="path21002"
       style="fill:#ffffff" />
    <path
       inkscape:connector-curvature="0"
       class="cls-1"
       d="m 792.80263,139.75225 c 1.54,6.3 5.88,10.08 13.3,10.08 9,0 13.72,-5.6 13.72,-14.14 v -8.4 c -3.36,4.9 -10.36,8.26 -16.94,8.26 -14.7,0 -29,-10.08 -29,-31.36 v -7.699998 c 0,-21.28 14.28,-31.36 29,-31.36 6.58,0 13.58,3.36 16.94,8.26 v -6.3 h 18.48 v 66.219998 c 0,20 -11.48,33.18 -32.2,33.18 -18.62,0 -29.54,-10.08 -31.78,-26.74 z m -0.42,-36.26 c 0,9.66 6.72,14 13.72,14 7,0 13.72,-4.34 13.72,-14 v -6.299998 c 0,-9.66 -6.72,-14 -13.72,-14 -7,0 -13.72,4.34 -13.72,14 z"
       id="path21004"
       style="fill:#ffffff" />
    <path
       inkscape:connector-curvature="0"
       class="cls-1"
       d="m 384.82263,200.84225 h 40.88 v 18.62 h -40.88 v 21.56 h 40.88 v 18.62 h -59.64 v -98 h 59.64 v 18.62 h -40.88 z"
       id="path21006"
       style="fill:#ffffff" />
    <path
       inkscape:connector-curvature="0"
       class="cls-1"
       d="m 480.96263,187.40225 h 21 l -23.38,35.14 24.5,37.1 h -21.14 l -14.28,-22.12 -14.28,22.12 h -21.14 l 24.5,-37.1 -23.38,-35.14 h 21 l 13.3,20.44 z"
       id="path21008"
       style="fill:#ffffff" />
    <path
       inkscape:connector-curvature="0"
       class="cls-1"
       d="m 528.81263,285.40225 h -18.51 v -98 h 18.48 v 6.35 c 3.36,-4.9 10.36,-8.26 16.94,-8.26 14.7,0 29,10.08 29,31.36 v 12.88 c 0,21.28 -14.28,31.36 -29,31.36 -6.58,0 -13.58,-3.36 -16.94,-8.26 z m 27.49,-67.9 c 0,-9.66 -6.72,-14 -13.72,-14 -7,0 -13.72,4.34 -13.72,14 v 11.48 c 0,9.66 6.72,14 13.72,14 7,0 13.72,-4.34 13.72,-14 z"
       id="path21010"
       style="fill:#ffffff" />
    <path
       inkscape:connector-curvature="0"
       class="cls-1"
       d="m 584.01263,218.62225 c 0,-20 11.48,-33.18 32.2,-33.18 20.72,0 32.2,13.16 32.2,33.18 v 9.24 c 0,20 -11.48,33.18 -32.2,33.18 -20.72,0 -32.2,-13.16 -32.2,-33.18 z m 45.92,-2.38 c 0,-8.54 -4.76,-14.14 -13.72,-14.14 -8.96,0 -13.72,5.6 -13.72,14.14 v 14 c 0,8.54 4.76,14.14 13.72,14.14 8.96,0 13.72,-5.6 13.72,-14.14 z"
       id="path21012"
       style="fill:#ffffff" />
    <path
       inkscape:connector-curvature="0"
       class="cls-1"
       d="m 655.94263,236.26225 h 18.48 c 0.7,5.6 7.56,8.12 13.44,8.12 3.64,0 9.1,-0.84 9.1,-5.6 0,-2.8 -2.1,-4.62 -6.44,-5.6 l -15.12,-3.36 c -7.84,-1.82 -17.78,-8 -17.78,-22.12 0,-14.12 12.74,-22.26 27.58,-22.26 14.56,0 26.88,7 28,23.38 h -18.9 c -1,-4.62 -5,-6.72 -9.66,-6.72 -5.46,0 -8.4,2.1 -8.54,5.46 -0.14,3.36 2.38,4.62 5.6,5.32 l 16.24,3.64 c 7.84,1.82 17.5,7.28 17.5,22.26 0,16.24 -13.16,22.26 -28.14,22.26 -14.98,0 -30.66,-7.56 -31.36,-24.78 z"
       id="path21014"
       style="fill:#ffffff" />
    <path
       inkscape:connector-curvature="0"
       class="cls-1"
       d="m 741.70263,229.82225 v 0.42 c 0,8.54 4.76,14.14 13.72,14.14 6.58,0 10.92,-3.08 12.74,-8 h 18.76 c -2.94,15.12 -13.58,24.64 -31.5,24.64 -20.72,0 -32.2,-13.16 -32.2,-33.18 v -9.24 c 0,-20 11.48,-33.18 32.2,-33.18 20.72,0 32.2,13.16 32.2,33.18 v 11.2 z m 0,-15.4 v 0.14 h 27.3 v -0.14 c -0.56,-7.7 -5.18,-12.32 -13.58,-12.32 -8.4,0 -13.02,4.9 -13.72,12.32 z"
       id="path21016"
       style="fill:#ffffff" />
    <path
       inkscape:connector-curvature="0"
       class="cls-1"
       d="m 842.50263,252.75225 c -3.36,4.9 -10.36,8.26 -16.94,8.26 -14.7,0 -29,-10.08 -29,-31.36 v -12.85 c 0,-21.28 14.28,-31.36 29,-31.36 6.58,0 13.58,3.36 16.94,8.26 v -32.06 h 18.48 v 98 h -18.48 z m -27.44,-23.8 c 0,9.66 6.72,14 13.72,14 7,0 13.72,-4.34 13.72,-14 v -11.45 c 0,-9.66 -6.72,-14 -13.72,-14 -7,0 -13.72,4.34 -13.72,14 z"
       id="path21018"
       style="fill:#ffffff" />
    <path
       inkscape:connector-curvature="0"
       class="cls-1"
       d="M 304.05263,151.75225 A 150.38,150.38 0 0 0 164.23263,1.7522562 V 22.912256 c 66.36,5.39 118.71,61.109996 118.71,128.839994 0,67.73 -52.35,123.45 -118.71,128.84 v 21.16 a 150.38,150.38 0 0 0 139.82,-150 z"
       id="path21020"
       style="fill:#ffffff" />
    <path
       inkscape:connector-curvature="0"
       class="cls-1"
       d="m 24.412635,151.75225 c 0,-67.729998 52.35,-123.449994 118.709995,-128.839994 V 1.7522562 a 150.37,150.37 0 0 0 0,299.9999938 v -21.16 c -66.359995,-5.39 -118.709995,-61.11 -118.709995,-128.84 z"
       id="path21022"
       style="fill:#ffffff" />
    <path
       inkscape:connector-curvature="0"
       class="cls-1"
       d="M 102.23263,62.652252 A 102.9,102.9 0 0 0 59.762635,193.75225 l 18.42,-10.64 a 81.76,81.76 0 0 1 140.429995,-81.08 l 18.43,-10.629998 a 102.9,102.9 0 0 0 -134.81,-28.75 z"
       id="path21024"
       style="fill:#ffffff" />
    <path
       inkscape:connector-curvature="0"
       class="cls-1"
       d="m 194.57263,222.58225 a 81.91,81.91 0 0 1 -105.839995,-21.15 l -18.43,10.63 a 102.9,102.9 0 0 0 177.289995,-102.31 l -18.42,10.6 a 81.9,81.9 0 0 1 -34.6,102.23 z"
       id="path21026"
       style="fill:#ffffff" />
    <path
       inkscape:connector-curvature="0"
       class="cls-1"
       d="m 181.37263,103.75225 a 55.41,55.41 0 0 0 -69.52,11.65 l 18.84,10.88 a 34.29,34.29 0 0 1 56.52,32.63 l 18.84,10.87 a 55.41,55.41 0 0 0 -24.68,-66.03 z"
       id="path21028"
       style="fill:#ffffff" />
    <path
       inkscape:connector-curvature="0"
       class="cls-1"
       d="m 136.53263,181.45225 a 34.35,34.35 0 0 1 -16.39,-36.88 l -18.83999,-10.82 a 55.4,55.4 0 0 0 94.19999,54.38 l -18.85,-10.88 a 34.33,34.33 0 0 1 -40.12,4.2 z"
       id="path21030"
       style="fill:#ffffff" />
  </g>
  <g
     inkscape:groupmode="layer"
     id="layer2"
     inkscape:label="default-black"
     style="display:none"
     sodipodi:insensitive="true">
    <path
       inkscape:connector-curvature="0"
       class="cls-1"
       d="m 398.76122,59.554971 v 79.379999 h -19.32 V 59.554971 h -27.3 v -18.62 h 73.92 v 18.62 z"
       id="path19953"
       style="fill:#000000" />
    <path
       inkscape:connector-curvature="0"
       class="cls-1"
       d="m 435.52122,138.93497 h -18.48 V 66.694971 h 18.48 v 7.84 c 2.1,-4.9 8.26,-9.1 16.8,-9.1 h 5.6 v 18.06 h -8.68 c -7,0 -13.72,4.34 -13.72,13.999999 z"
       id="path19955"
       style="fill:#000000" />
    <path
       inkscape:connector-curvature="0"
       class="cls-1"
       d="m 506.20122,91.894971 c -1.26,-6.58 -5.74,-10.5 -13.44,-10.5 -6.58,0 -10.92,3.08 -12.74,8 h -18.62 c 2.94,-15.12 13.44,-24.64 31.36,-24.64 20.72,0 32.2,13.16 32.2,33.179999 v 41 h -18.48 v -8.26 c -3.36,5.46 -9,9.66 -20.16,9.66 -16.8,0 -26.32,-8 -26.32,-21.42 0,-10.64 3.64,-16.66 13.72,-21.56 7,-3.219999 21.56,-4.619999 32.48,-5.319999 z m -27.72,24.919999 c 0,3.5 2.66,7.28 10.92,7.28 9.52,0 17.08,-5.32 17.08,-14.42 v -2.38 c -10.64,0.7 -20.58,1.54 -24.08,3.36 -3.22,1.54 -3.92,2.94 -3.92,6.16 z"
       id="path19957"
       style="fill:#000000" />
    <path
       inkscape:connector-curvature="0"
       class="cls-1"
       d="m 595.93122,112.61497 c -2.1,17.22 -12.88,27.72 -31.92,27.72 -20.72,0 -32.2,-13.16 -32.2,-33.18 v -9.24 c 0,-19.999999 11.48,-33.179999 32.2,-33.179999 19,0 29.82,10.5 31.92,27.72 h -18.48 c -1.11,-6.72 -5.6,-11.08 -13.44,-11.08 -9,0 -13.72,5.6 -13.72,14.14 v 13.999999 c 0,8.54 4.76,14.14 13.72,14.14 7.84,0 12.46,-4.2 13.44,-11.06 z"
       id="path19959"
       style="fill:#000000" />
    <path
       inkscape:connector-curvature="0"
       class="cls-1"
       d="m 620.94122,91.894971 23.1,-25.2 h 22.4 l -26.18,28.42 30,43.819999 h -21.7 l -20.72,-30.24 -6.86,7.56 v 22.68 h -18.52 V 40.934971 h 18.48 z"
       id="path19961"
       style="fill:#000000" />
    <path
       inkscape:connector-curvature="0"
       class="cls-1"
       d="m 692.13122,57.314971 h -18.48 v -16.38 h 18.48 z m 0,81.619999 h -18.48 V 66.694971 h 18.48 z"
       id="path19963"
       style="fill:#000000" />
    <path
       inkscape:connector-curvature="0"
       class="cls-1"
       d="m 766.40122,138.93497 h -18.48 v -42.14 c 0,-9.659999 -6.72,-13.999999 -13.72,-13.999999 -7,0 -13.72,4.34 -13.72,13.999999 v 42.14 h -18.48 V 66.694971 h 18.48 v 6.3 c 3.36,-4.9 10.36,-8.26 16.94,-8.26 14.7,0 29,10.08 29,31.359999 z"
       id="path19965"
       style="fill:#000000" />
    <path
       inkscape:connector-curvature="0"
       class="cls-1"
       d="m 791.84122,139.37497 c 1.54,6.3 5.88,10.08 13.3,10.08 9,0 13.72,-5.6 13.72,-14.14 v -8.4 c -3.36,4.9 -10.36,8.26 -16.94,8.26 -14.7,0 -29,-10.08 -29,-31.36 v -7.7 c 0,-21.279999 14.28,-31.359999 29,-31.359999 6.58,0 13.58,3.36 16.94,8.26 v -6.3 h 18.48 v 66.219999 c 0,20 -11.48,33.18 -32.2,33.18 -18.62,0 -29.54,-10.08 -31.78,-26.74 z m -0.42,-36.26 c 0,9.66 6.72,14 13.72,14 7,0 13.72,-4.34 13.72,-14 v -6.3 c 0,-9.659999 -6.72,-13.999999 -13.72,-13.999999 -7,0 -13.72,4.34 -13.72,13.999999 z"
       id="path19967"
       style="fill:#000000" />
    <path
       inkscape:connector-curvature="0"
       class="cls-1"
       d="m 383.86122,200.46497 h 40.88 v 18.62 h -40.88 v 21.56001 h 40.88 v 18.62 h -59.64 v -98.00001 h 59.64 v 18.62 h -40.88 z"
       id="path19969"
       style="fill:#000000" />
    <path
       inkscape:connector-curvature="0"
       class="cls-1"
       d="m 480.00122,187.02497 h 21 l -23.38,35.14 24.5,37.10001 h -21.14 l -14.28,-22.12 -14.28,22.12 h -21.14 l 24.5,-37.10001 -23.38,-35.14 h 21 l 13.3,20.44 z"
       id="path19971"
       style="fill:#000000" />
    <path
       inkscape:connector-curvature="0"
       class="cls-1"
       d="m 527.85122,285.02498 h -18.51 v -98.00001 h 18.48 v 6.35 c 3.36,-4.9 10.36,-8.26 16.94,-8.26 14.7,0 29,10.08 29,31.36 v 12.88001 c 0,21.28 -14.28,31.36 -29,31.36 -6.58,0 -13.58,-3.36 -16.94,-8.26 z m 27.49,-67.90001 c 0,-9.66 -6.72,-14 -13.72,-14 -7,0 -13.72,4.34 -13.72,14 v 11.48001 c 0,9.66 6.72,14 13.72,14 7,0 13.72,-4.34 13.72,-14 z"
       id="path19973"
       style="fill:#000000" />
    <path
       inkscape:connector-curvature="0"
       class="cls-1"
       d="m 583.05122,218.24497 c 0,-20 11.48,-33.18 32.2,-33.18 20.72,0 32.2,13.16 32.2,33.18 v 9.24001 c 0,20 -11.48,33.18 -32.2,33.18 -20.72,0 -32.2,-13.16 -32.2,-33.18 z m 45.92,-2.38 c 0,-8.54 -4.76,-14.14 -13.72,-14.14 -8.96,0 -13.72,5.6 -13.72,14.14 v 14.00001 c 0,8.54 4.76,14.14 13.72,14.14 8.96,0 13.72,-5.6 13.72,-14.14 z"
       id="path19975"
       style="fill:#000000" />
    <path
       inkscape:connector-curvature="0"
       class="cls-1"
       d="m 654.98122,235.88498 h 18.48 c 0.7,5.6 7.56,8.12 13.44,8.12 3.64,0 9.1,-0.84 9.1,-5.6 0,-2.8 -2.1,-4.62 -6.44,-5.6 l -15.12,-3.36 c -7.84,-1.82 -17.78,-8.00001 -17.78,-22.12001 0,-14.12 12.74,-22.26 27.58,-22.26 14.56,0 26.88,7 28,23.38 h -18.9 c -1,-4.62 -5,-6.72 -9.66,-6.72 -5.46,0 -8.4,2.1 -8.54,5.46 -0.14,3.36 2.38,4.62 5.6,5.32 l 16.24,3.64 c 7.84,1.82 17.5,7.28 17.5,22.26001 0,16.24 -13.16,22.26 -28.14,22.26 -14.98,0 -30.66,-7.56 -31.36,-24.78 z"
       id="path19977"
       style="fill:#000000" />
    <path
       inkscape:connector-curvature="0"
       class="cls-1"
       d="m 740.74122,229.44498 v 0.42 c 0,8.54 4.76,14.14 13.72,14.14 6.58,0 10.92,-3.08 12.74,-8 h 18.76 c -2.94,15.12 -13.58,24.64 -31.5,24.64 -20.72,0 -32.2,-13.16 -32.2,-33.18 v -9.24001 c 0,-20 11.48,-33.18 32.2,-33.18 20.72,0 32.2,13.16 32.2,33.18 v 11.20001 z m 0,-15.40001 v 0.14 h 27.3 v -0.14 c -0.56,-7.7 -5.18,-12.32 -13.58,-12.32 -8.4,0 -13.02,4.9 -13.72,12.32 z"
       id="path19979"
       style="fill:#000000" />
    <path
       inkscape:connector-curvature="0"
       class="cls-1"
       d="m 841.54122,252.37498 c -3.36,4.9 -10.36,8.26 -16.94,8.26 -14.7,0 -29,-10.08 -29,-31.36 v -12.85001 c 0,-21.28 14.28,-31.36 29,-31.36 6.58,0 13.58,3.36 16.94,8.26 v -32.06 h 18.48 v 98.00001 h -18.48 z m -27.44,-23.8 c 0,9.66 6.72,14 13.72,14 7,0 13.72,-4.34 13.72,-14 v -11.45001 c 0,-9.66 -6.72,-14 -13.72,-14 -7,0 -13.72,4.34 -13.72,14 z"
       id="path19981"
       style="fill:#000000" />
    <path
       inkscape:connector-curvature="0"
       class="cls-1"
       d="M 303.09122,151.37497 A 150.38,150.38 0 0 0 163.27122,1.3749713 V 22.534971 c 66.36,5.39 118.71,61.11 118.71,128.839999 0,67.73 -52.35,123.45001 -118.71,128.84001 v 21.16 a 150.38,150.38 0 0 0 139.82,-150.00001 z"
       id="path19983"
       style="fill:#000000" />
    <path
       inkscape:connector-curvature="0"
       class="cls-1"
       d="m 23.451328,151.37497 c 0,-67.729999 52.349992,-123.449999 118.709892,-128.839999 V 1.3749713 a 150.37,150.37 0 0 0 0,300.0000087 v -21.16 C 75.80132,274.82498 23.451328,219.10497 23.451328,151.37497 Z"
       id="path19985"
       style="fill:#000000" />
    <path
       inkscape:connector-curvature="0"
       class="cls-1"
       d="m 101.27132,62.274971 a 102.9,102.9 0 0 0 -42.47,131.099999 l 18.42,-10.64 a 81.76,81.76 0 0 1 140.4299,-81.08 l 18.43,-10.629999 a 102.9,102.9 0 0 0 -134.8099,-28.75 z"
       id="path19987"
       style="fill:#000000" />
    <path
       inkscape:connector-curvature="0"
       class="cls-1"
       d="m 193.61122,222.20497 a 81.91,81.91 0 0 1 -105.8399,-21.15 l -18.43,10.63 a 102.9,102.9 0 0 0 177.2899,-102.31 l -18.42,10.6 a 81.9,81.9 0 0 1 -34.6,102.23 z"
       id="path19989"
       style="fill:#000000" />
    <path
       inkscape:connector-curvature="0"
       class="cls-1"
       d="m 180.41122,103.37497 a 55.41,55.41 0 0 0 -69.52,11.65 l 18.84,10.88 a 34.29,34.29 0 0 1 56.52,32.63 l 18.84,10.87 a 55.41,55.41 0 0 0 -24.68,-66.03 z"
       id="path19991"
       style="fill:#000000" />
    <path
       inkscape:connector-curvature="0"
       class="cls-1"
       d="m 135.57122,181.07497 a 34.35,34.35 0 0 1 -16.39,-36.88 l -18.8399,-10.82 a 55.4,55.4 0 0 0 94.1999,54.38 l -18.85,-10.88 a 34.33,34.33 0 0 1 -40.12,4.2 z"
       id="path19993"
       style="fill:#000000" />
  </g>
</svg>
